<svg viewBoxSize="575" data-root-id="4349689373655" xmlns="http://www.w3.org/2000/svg" x="177.75" y="267.50018310546875" viewBox="0.8400000333786011 12.300000190734863 335 39.95000076293945" height="39.95000076293945" width="335" fontUrl="https://fonts.gstatic.com/s/abrilfatface/v23/zOL64pLDlL1D99S8g8PtiKchm-BsjOLhZBY.ttf" zoom="1" editorType="buyer" data-layer-role="brandName" style="position: absolute; top: 267.5px; left: 177.75px; width: 335px; height: 39.95px;"><g data-horizontal-grow="left" data-vertical-center="false" zoom="1" root="[object Object]" style="fill: rgb(0, 0, 0);"><path d="M28.52 27.80L28.52 27.80Q28.52 36.03 23.89 39.27L23.89 39.27Q19.61 42.26 12.14 42.26L12.14 42.26L0.84 42.26L0.84 41.51L3.48 41.51L3.48 15.06L0.84 15.06L0.84 14.30L13.18 14.30Q20.85 14.30 24.69 17.44Q28.52 20.57 28.52 27.80ZM11.27 15.06L11.27 41.51L12.78 41.51Q16.82 41.51 18.56 38.65Q20.29 35.79 20.29 29.08L20.29 29.08L20.29 26.76Q20.29 17.78 16.86 15.94L16.86 15.94Q15.22 15.06 12.22 15.06L12.22 15.06L11.27 15.06ZM41.07 42.66Q35.91 42.66 33.34 40.01Q30.76 37.35 30.76 32.62Q30.76 27.88 33.66 25.37Q36.55 22.85 41.03 22.85L41.03 22.85Q50.09 22.85 49.73 31.96L49.73 31.96L38.47 31.96L38.47 33.52Q38.47 37.43 39.47 39.43Q40.47 41.43 42.94 41.43L42.94 41.43Q47.58 41.43 49.02 36.47L49.02 36.47L49.73 36.59Q48.98 39.47 47.00 41.07Q45.02 42.66 41.07 42.66L41.07 42.66ZM38.51 29.20L38.51 31.16L42.62 31.16L42.62 29.20Q42.62 25.97 42.24 24.79Q41.86 23.61 40.73 23.61Q39.59 23.61 39.05 24.87Q38.51 26.13 38.51 29.20L38.51 29.20ZM51.01 13.02L51.01 12.30L60.80 12.30L60.80 41.55L63.04 41.55L63.04 42.26L51.17 42.26L51.17 41.55L53.37 41.55L53.37 13.02L51.01 13.02ZM69.67 20.49Q67.55 20.49 66.65 19.41Q65.75 18.34 65.75 16.74Q65.75 15.14 66.73 14.10Q67.71 13.06 69.71 13.06Q71.71 13.06 72.74 14.00Q73.78 14.94 73.78 16.68Q73.78 18.42 72.78 19.45Q71.79 20.49 69.67 20.49ZM63.64 23.97L63.64 23.25L73.42 23.25L73.42 41.55L75.66 41.55L75.66 42.26L63.80 42.26L63.80 41.55L65.99 41.55L65.99 23.97L63.64 23.97ZM76.50 23.97L74.86 23.97L74.86 23.25L86.81 23.25L86.81 23.97L84.29 23.97L89.08 37.23L93.40 23.97L90.72 23.97L90.72 23.25L96.11 23.25L96.11 23.97L94.36 23.97L88.44 42.26L83.89 42.26L76.50 23.97ZM108.42 34.39L108.42 34.39L108.42 31.00Q108.42 27.12 108.00 25.35Q107.58 23.57 106.06 23.57L106.06 23.57Q105.18 23.57 104.64 24.07Q104.10 24.57 103.86 25.73L103.86 25.73Q103.50 27.52 103.50 31.20L103.50 31.20L103.50 34.31Q103.50 38.67 103.76 39.55Q104.02 40.43 104.30 40.99L104.30 40.99Q104.74 41.94 106.02 41.94L106.02 41.94Q107.58 41.94 108.06 40.15L108.06 40.15Q108.42 38.87 108.42 34.39ZM105.94 42.66Q100.95 42.66 98.39 40.11Q95.83 37.55 95.83 32.78Q95.83 28.00 98.57 25.43Q101.31 22.85 106.26 22.85Q111.21 22.85 113.65 25.23Q116.09 27.60 116.09 32.48L116.09 32.48Q116.09 42.66 105.94 42.66L105.94 42.66ZM130.55 24.37L130.55 24.37Q129.07 24.37 127.95 26.29Q126.83 28.20 126.83 30.84L126.83 30.84L126.83 41.55L129.67 41.55L129.67 42.26L117.21 42.26L117.21 41.55L119.40 41.55L119.40 23.97L117.21 23.97L117.21 23.25L126.83 23.25L126.83 27.08Q127.35 25.05 128.83 23.95Q130.31 22.85 132.19 22.85Q134.06 22.85 135.24 23.91Q136.42 24.97 136.42 26.90Q136.42 28.84 135.54 29.88Q134.66 30.92 132.84 30.92Q131.03 30.92 130.17 29.72Q129.31 28.52 129.95 26.41L129.95 26.41L131.39 26.41Q132.39 24.37 130.55 24.37ZM142.85 20.49Q140.73 20.49 139.84 19.41Q138.94 18.34 138.94 16.74Q138.94 15.14 139.92 14.10Q140.89 13.06 142.89 13.06Q144.89 13.06 145.93 14.00Q146.97 14.94 146.97 16.68Q146.97 18.42 145.97 19.45Q144.97 20.49 142.85 20.49ZM136.82 23.97L136.82 23.25L146.61 23.25L146.61 41.55L148.84 41.55L148.84 42.26L136.98 42.26L136.98 41.55L139.18 41.55L139.18 23.97L136.82 23.97ZM159.23 32.88L159.23 32.88L160.39 32.88L160.39 29.80Q160.39 26.01 159.97 24.71Q159.55 23.41 158.35 23.41L158.35 23.41Q157.63 23.41 157.05 23.79Q156.47 24.17 156.47 24.83Q156.47 25.49 156.71 26.17L156.71 26.17L157.71 26.17Q158.03 27.00 158.03 28.18Q158.03 29.36 157.03 30.22Q156.03 31.08 154.52 31.08L154.52 31.08Q151.08 31.08 151.08 27.76L151.08 27.76Q151.08 22.85 159.43 22.85L159.43 22.85Q164.18 22.85 166.00 24.47Q167.82 26.09 167.82 30.40L167.82 30.40L167.82 38.51Q167.82 40.59 168.98 40.59L168.98 40.59Q170.34 40.59 170.58 36.47L170.58 36.47L171.17 36.51Q171.01 40.03 169.86 41.35Q168.70 42.66 166.06 42.66L166.06 42.66Q161.27 42.66 160.55 39.71L160.55 39.71Q160.03 41.23 158.99 41.94Q157.95 42.66 155.95 42.66L155.95 42.66Q150.04 42.66 150.04 37.83L150.04 37.83Q150.04 34.99 152.30 33.94Q154.56 32.88 159.23 32.88ZM157.63 37.79Q157.63 39.87 157.85 40.47Q158.07 41.07 158.69 41.07Q159.31 41.07 159.85 40.05Q160.39 39.03 160.39 37.23L160.39 37.23L160.39 33.52L160.11 33.52Q157.63 33.52 157.63 37.15L157.63 37.15L157.63 37.79ZM180.20 14.30L203.77 14.30L204.17 24.33L203.41 24.33Q201.65 19.01 200.30 17.08Q198.94 15.14 196.38 15.14L196.38 15.14L195.90 15.14L195.90 41.43L199.30 41.43L199.30 42.26L184.72 42.26L184.72 41.43L188.11 41.43L188.11 15.14L187.59 15.14Q185.04 15.14 183.64 17.16Q182.24 19.17 180.56 24.33L180.56 24.33L179.80 24.33L180.20 14.30ZM206.05 13.02L206.05 12.30L215.68 12.30L215.68 26.92Q216.32 25.09 217.63 23.97Q218.95 22.85 221.63 22.85L221.63 22.85Q227.82 22.85 227.82 29.52L227.82 29.52L227.82 41.55L230.06 41.55L230.06 42.26L218.75 42.26L218.75 41.55L220.39 41.55L220.39 28.56Q220.39 26.17 220.07 25.47Q219.75 24.77 218.91 24.77L218.91 24.77Q217.63 24.77 216.65 26.45Q215.68 28.12 215.68 30.52L215.68 30.52L215.68 41.55L217.39 41.55L217.39 42.26L206.05 42.26L206.05 41.55L208.25 41.55L208.25 13.02L206.05 13.02ZM241.16 42.66Q236.01 42.66 233.43 40.01Q230.86 37.35 230.86 32.62Q230.86 27.88 233.75 25.37Q236.65 22.85 241.12 22.85L241.12 22.85Q250.19 22.85 249.83 31.96L249.83 31.96L238.57 31.96L238.57 33.52Q238.57 37.43 239.56 39.43Q240.56 41.43 243.04 41.43L243.04 41.43Q247.67 41.43 249.11 36.47L249.11 36.47L249.83 36.59Q249.07 39.47 247.09 41.07Q245.12 42.66 241.16 42.66L241.16 42.66ZM238.61 29.20L238.61 31.16L242.72 31.16L242.72 29.20Q242.72 25.97 242.34 24.79Q241.96 23.61 240.82 23.61Q239.68 23.61 239.14 24.87Q238.61 26.13 238.61 29.20L238.61 29.20ZM264.61 24.37L264.61 24.37Q263.13 24.37 262.01 26.29Q260.90 28.20 260.90 30.84L260.90 30.84L260.90 41.55L263.73 41.55L263.73 42.26L251.27 42.26L251.27 41.55L253.47 41.55L253.47 23.97L251.27 23.97L251.27 23.25L260.90 23.25L260.90 27.08Q261.42 25.05 262.89 23.95Q264.37 22.85 266.25 22.85Q268.13 22.85 269.31 23.91Q270.48 24.97 270.48 26.90Q270.48 28.84 269.60 29.88Q268.73 30.92 266.91 30.92Q265.09 30.92 264.23 29.72Q263.37 28.52 264.01 26.41L264.01 26.41L265.45 26.41Q266.45 24.37 264.61 24.37ZM280.03 32.88L280.03 32.88L281.19 32.88L281.19 29.80Q281.19 26.01 280.77 24.71Q280.35 23.41 279.15 23.41L279.15 23.41Q278.43 23.41 277.85 23.79Q277.27 24.17 277.27 24.83Q277.27 25.49 277.51 26.17L277.51 26.17L278.51 26.17Q278.83 27.00 278.83 28.18Q278.83 29.36 277.83 30.22Q276.84 31.08 275.32 31.08L275.32 31.08Q271.88 31.08 271.88 27.76L271.88 27.76Q271.88 22.85 280.23 22.85L280.23 22.85Q284.98 22.85 286.80 24.47Q288.62 26.09 288.62 30.40L288.62 30.40L288.62 38.51Q288.62 40.59 289.78 40.59L289.78 40.59Q291.14 40.59 291.38 36.47L291.38 36.47L291.98 36.51Q291.82 40.03 290.66 41.35Q289.50 42.66 286.86 42.66L286.86 42.66Q282.07 42.66 281.35 39.71L281.35 39.71Q280.83 41.23 279.79 41.94Q278.75 42.66 276.76 42.66L276.76 42.66Q270.84 42.66 270.84 37.83L270.84 37.83Q270.84 34.99 273.10 33.94Q275.36 32.88 280.03 32.88ZM278.43 37.79Q278.43 39.87 278.65 40.47Q278.87 41.07 279.49 41.07Q280.11 41.07 280.65 40.05Q281.19 39.03 281.19 37.23L281.19 37.23L281.19 33.52L280.91 33.52Q278.43 33.52 278.43 37.15L278.43 37.15L278.43 37.79ZM306.56 31.52Q306.56 27.40 306.16 25.99Q305.76 24.57 304.60 24.57Q303.44 24.57 302.52 26.07Q301.60 27.56 301.60 30.08L301.60 30.08L301.60 37.39Q301.60 39.11 302.28 40.31Q302.96 41.51 304.28 41.51Q305.60 41.51 306.08 39.75Q306.56 37.99 306.56 33.60L306.56 33.60L306.56 31.52ZM292.06 23.25L301.52 23.25L301.52 26.41Q303.08 22.85 307.04 22.85L307.04 22.85Q310.47 22.85 312.37 25.33Q314.27 27.80 314.27 32.84Q314.27 37.87 312.21 40.27Q310.15 42.66 306.04 42.66L306.04 42.66Q304.12 42.66 303.16 42.18Q302.20 41.71 301.60 40.71L301.60 40.71L301.60 51.05L306.76 51.05L306.76 51.77L291.98 51.77L291.98 51.05L294.17 51.05L294.17 23.97L292.06 23.97L292.06 23.25ZM316.10 23.97L314.47 23.97L314.47 23.25L326.05 23.25L326.05 23.97L323.89 23.97L328.25 37.23L332.88 23.97L330.20 23.97L330.20 23.25L335.84 23.25L335.84 23.97L333.84 23.97L326.37 45.50Q325.05 49.26 323.41 50.75Q321.78 52.25 319.42 52.25Q317.06 52.25 315.70 51.17Q314.35 50.09 314.35 48.42Q314.35 46.74 315.22 45.86Q316.10 44.98 317.54 44.98L317.54 44.98Q320.86 44.98 320.86 47.74L320.86 47.74Q320.86 48.34 320.62 49.18L320.62 49.18L319.22 49.18Q318.90 50.09 319.14 50.69Q319.38 51.29 320.22 51.29L320.22 51.29Q321.86 51.29 323.13 49.67Q324.41 48.06 325.57 44.74L325.57 44.74L326.45 42.26L322.93 42.26L316.10 23.97Z" transform="translate(0, 0)"></path></g></svg>