<svg viewBoxSize="575" data-root-id="2498459308910" xmlns="http://www.w3.org/2000/svg" xmlns:xlink="http://www.w3.org/1999/xlink" version="1.1" id="mmmm_1" x="224" y="200.438" viewBox="1706.8800048828125 829.4000244140625 1586.7401123046875 1341.2098388671875" xml:space="preserve" height="87.06196476862982" width="103" preserveAspectRatio="xMinYMin" zoom="1" editorType="buyer" data-layer-role="icon" style="position: absolute; height: 87.062px; width: 103px; top: 200.438px; left: 224px;"><path d="M3157.82,1784.8c7.9-11.05,14.21-23.23,18.18-36.62c22.28-71.23-45.13-124.5-105.63-146.13   c14.77-61.27-5.62-124.28-70.97-146.57c-26.68-9.08-56.71-13.12-88.12-13.33c-52.43-49.71-129.46-85.32-201.65-70.96   c-108.04-76.44-269.28-36.78-355.26,57.57c-77.56-11.13-154.1,8.4-199.27,87.01c-16.59,29.37-24.04,60.54-24.29,91.7   c-44.97,20.43-79.42,57.17-88.39,115.24c-26.3,133.92,108.07,247.47,235.11,239.38c122.61-7.99,239.99-54.05,342.91-119.53   c1.74-1.23,3.54-2.35,5.29-3.55c93.15-15.9,188.75-19.39,278.18,10.06c65.72,30.25,144.02,21.25,204.06-17.76   c12.29-8.2,24.04-17.67,34.47-28.37c17.45,22.82,19.62,53.24,11.55,81.47c-7.84,37.71-34.72,60.3-72.98,62.61   c-58.68,4.42-117.3-10.75-175.97-20.22c-39.97-7.09-79.97-13.8-121.13-18.13c-42.6-3.78-85.54-4.54-127.35,9.67   c-40.05,11.98-72.26,50.56-72.03,94.53c-1.11,22.23-1.36,44.58-1.35,66.83c0.01,32.57-25.5,59.43-58.03,61.14   c-60.77,3.2-121.1,9.98-181.15,24.91v3.24l269.08,1.62l269.08-1.62v-3.24c-67.21-16.6-134.76-23.11-202.89-25.84   c-32.54-1.3-58.31-28.06-58.66-60.62c-0.18-16.83-0.28-33.58-0.13-50.23c-1.91-37.55,9.81-64.59,47.92-78.01   c33.69-12.08,73.8-12.42,112.5-9.33c39.28,3.61,79.14,9.7,118.8,16.21c60.48,8.94,121.99,24,184.57,18.06   c21.47-2.6,44.93-9.6,62.99-25.91c33.23-32.01,42.31-82.99,32.82-125.9C3175.89,1808.82,3167.97,1795.82,3157.82,1784.8z    M2990.87,1476.89c34.72,13.65,58.7,43.52,57.52,81.36c-0.18,35.8-11.37,74.03-42.51,93.87c-29.68,18.18-63.89,23.28-98.87,23.87   c-32.47-7.05-64.33-19.42-95.03-30.57c-66.24-26.97-129.43-60.29-191.88-95.26c25.15-19.46,53.49-34.62,82.62-47.11   C2792.29,1467.93,2897.98,1443.33,2990.87,1476.89z M2902.16,1442.09c-101.57,1.81-216.49,44.7-286.3,105.68   c-17.46-9.8-34.88-19.71-52.29-29.65c-22.5-12.41-51.26-29.98-77.05-43.72c5.74,1.23,11.53,2.33,17.39,3.24   C2659.85,1502.62,2652.03,1315.72,2902.16,1442.09z M2696.41,1374.48c-7.77,2.25-15.49,4.88-23.07,8.41   c-39.23,15.75-73.68,50.21-109.15,68.4c-17.49,7.35-38.17,9.89-59.33,10.44c-14.49,0.75-29.17,0.29-43.99-0.07   c-33.18-15.55-69.16-27.37-104.98-32.7C2462.97,1375.13,2579.86,1342.18,2696.41,1374.48z M2170.77,1524.14   c56.07-116.09,189.8-103.23,285.16-44.89c46.43,27.51,94.66,65.37,142.04,91.55c58.11,33.21,144.41,78.03,227.81,101.84   c-54.18-4.73-113.53-12.98-167.28-19.27c-142.49-9.63-274.66-66.2-419.95-66.39c-28.73-0.39-57.46,3.15-83.8,11.32   C2154.43,1573.28,2159.31,1548.18,2170.77,1524.14z M2689.35,1691.8c-7.93,1.62-15.84,3.36-23.65,5.48   c-36.88,10.32-73.29,25.78-105.14,48.7c-31.65,22.36-58.96,48.48-89.49,65.63c-61.36,36.51-137.63,23.73-195.75-14   c-57.58-36.3-105.61-100.54-117.69-168.84c25.53-8.06,53.71-10.63,80.98-10.6c131.13,1.45,255.59,54.28,386.12,66.56   C2637.93,1686.06,2666.47,1689.24,2689.35,1691.8z M3004.47,1834.33c-31.1,4.66-62.3-3.89-91.22-14.42   c-91.34-26.32-190.08-18.12-278.89,13.31c96.07-62.94,212.28-90.74,326.28-89.89c55.35,1.7,114.57,8.58,160.48,40.1   C3090.01,1812.62,3045.28,1830.09,3004.47,1834.33z M3151.97,1740.26c-3.96,9.41-9.25,18.11-15.44,26.19   c-16.23-11.18-34.9-19.24-53.08-24.74c-119.92-32.34-247.67-9.82-361.56,33.63c-37.77,14.88-73.74,35.86-106.76,58.92   c-67.79,43-142.09,76.05-219.78,95.52c-75.73,17.28-160.01,29.21-229.59-13.06c-84.8-45.35-131.25-155.04-76.26-239.73   c11.48-16.98,26.47-29.23,43.48-38.07c16.38,113.07,122.64,218.12,236.56,228.11c90.64,8.93,145.62-47.52,206.42-100.65   c42.87-35.34,95.79-57.4,151.5-70.39c77.59,8.24,154.99,20.15,233.72,5.28c43.02-7.81,87.97-35.16,103.01-78.66   c2.16-5.78,3.89-11.63,5.42-17.49C3118,1634.71,3173.52,1679.98,3151.97,1740.26z" name="Layer %{number}" zoom="1" data-layer-id="0619366908911" style="fill: rgb(198, 166, 120); fill-opacity: 1;"></path><path d="M2185.65,1236.14c17.08,0,30.92-13.84,30.92-30.92c0-17.08-13.84-30.92-30.92-30.92c-17.08,0-30.92,13.84-30.92,30.92   C2154.73,1222.3,2168.57,1236.14,2185.65,1236.14z" name="Layer %{number}" zoom="1" data-layer-id="8790122408911" style="fill: rgb(198, 166, 120); fill-opacity: 1;"></path><path d="M2427.6,872.22c11.82,0,21.41-9.58,21.41-21.41c0-11.82-9.58-21.41-21.41-21.41c-11.82,0-21.41,9.58-21.41,21.41   C2406.19,862.63,2415.78,872.22,2427.6,872.22z" name="Layer %{number}" zoom="1" data-layer-id="7751393808911" style="fill: rgb(198, 166, 120); fill-opacity: 1;"></path><path d="M2753.46,1174.3c5.25,0,9.51-4.26,9.51-9.51c0-5.25-4.26-9.51-9.51-9.51s-9.51,4.26-9.51,9.51   C2743.95,1170.04,2748.21,1174.3,2753.46,1174.3z" name="Layer %{number}" zoom="1" data-layer-id="6592913508911" style="fill: rgb(198, 166, 120); fill-opacity: 1;"></path><path d="M3221.07,1361.71c-9.97,0-18.05,8.08-18.05,18.05c0,9.97,8.08,18.05,18.05,18.05c9.97,0,18.05-8.08,18.05-18.05   C3239.12,1369.79,3231.04,1361.71,3221.07,1361.71z" name="Layer %{number}" zoom="1" data-layer-id="1143550608911" style="fill: rgb(198, 166, 120); fill-opacity: 1;"></path><path d="M1716.09,1460.95c-5.09,0-9.21,4.12-9.21,9.21c0,5.09,4.12,9.21,9.21,9.21c5.08,0,9.21-4.12,9.21-9.21   C1725.3,1465.07,1721.18,1460.95,1716.09,1460.95z" name="Layer %{number}" zoom="1" data-layer-id="2972056208911" style="fill: rgb(198, 166, 120); fill-opacity: 1;"></path><circle cx="3266.37" cy="1073.1" r="27.25" name="Layer %{number}" zoom="1" data-layer-id="5481563608911" style="fill: rgb(198, 166, 120); fill-opacity: 1;"></circle></svg>