<svg width="912" height="241" viewBox="0 0 912 241" fill="none" xmlns="http://www.w3.org/2000/svg">
<g clip-path="url(#clip0_2_9)">
<path d="M238.663 158.852C239.962 157.015 241 154.99 241.653 152.763C245.318 140.92 234.23 132.063 224.278 128.467C226.708 118.279 223.354 107.803 212.604 104.097C208.216 102.587 203.276 101.915 198.11 101.881C189.485 93.6153 176.815 87.6945 164.941 90.0821C147.169 77.3726 120.647 83.9668 106.504 99.6542C93.7468 97.8036 81.1569 101.051 73.7269 114.121C70.9981 119.004 69.7726 124.187 69.7315 129.368C62.3345 132.765 56.6679 138.873 55.1924 148.529C50.8664 170.795 72.9686 189.675 93.8652 188.33C114.033 187.001 133.341 179.343 150.27 168.456C150.556 168.251 150.852 168.065 151.14 167.865C166.462 165.222 182.187 164.642 196.897 169.538C207.707 174.568 220.587 173.071 230.463 166.585C232.484 165.222 234.417 163.647 236.133 161.868C239.003 165.662 239.36 170.72 238.033 175.414C236.743 181.684 232.322 185.44 226.028 185.824C216.376 186.559 206.734 184.037 197.083 182.462C190.509 181.283 183.929 180.168 177.159 179.448C170.152 178.819 163.088 178.693 156.211 181.055C149.623 183.047 144.325 189.462 144.363 196.773C144.18 200.469 144.139 204.185 144.141 207.884C144.143 213.3 139.947 217.766 134.596 218.05C124.6 218.582 114.676 219.709 104.799 222.192V222.73L149.059 223L193.32 222.73V222.192C182.264 219.432 171.153 218.349 159.947 217.895C154.594 217.679 150.355 213.23 150.298 207.816C150.268 205.018 150.252 202.233 150.276 199.465C149.962 193.221 151.89 188.725 158.159 186.494C163.7 184.486 170.298 184.429 176.664 184.943C183.125 185.543 189.681 186.556 196.205 187.638C206.153 189.124 216.271 191.628 226.564 190.641C230.096 190.209 233.955 189.045 236.926 186.333C242.391 181.011 243.885 172.534 242.324 165.4C241.635 162.846 240.332 160.684 238.663 158.852ZM211.201 107.657C216.912 109.926 220.857 114.893 220.663 121.184C220.633 127.137 218.792 133.493 213.67 136.792C208.788 139.814 203.161 140.662 197.407 140.761C192.066 139.588 186.826 137.532 181.776 135.678C170.88 131.194 160.486 125.653 150.214 119.839C154.351 116.604 159.012 114.083 163.804 112.006C178.537 106.167 195.922 102.077 211.201 107.657ZM196.609 101.871C179.902 102.171 160.999 109.303 149.517 119.442C146.645 117.812 143.779 116.165 140.915 114.512C137.214 112.448 132.484 109.527 128.242 107.243C129.186 107.447 130.138 107.63 131.102 107.781C156.752 111.935 155.466 80.8593 196.609 101.871ZM162.766 90.6292C161.488 91.0033 160.218 91.4406 158.971 92.0275C152.518 94.6462 146.852 100.376 141.017 103.4C138.14 104.622 134.739 105.045 131.258 105.136C128.875 105.261 126.46 105.184 124.022 105.124C118.565 102.539 112.646 100.574 106.754 99.6874C124.368 90.7372 143.595 85.2587 162.766 90.6292ZM76.3044 115.513C85.5273 96.2108 107.524 98.349 123.21 108.049C130.847 112.623 138.78 118.918 146.574 123.271C156.132 128.793 170.328 136.245 184.046 140.204C175.134 139.417 165.372 138.045 156.53 137C133.092 135.398 111.352 125.993 87.4535 125.961C82.7277 125.896 78.002 126.485 73.6693 127.843C73.6167 123.683 74.4194 119.51 76.3044 115.513ZM161.605 143.389C160.3 143.659 158.999 143.948 157.715 144.3C151.648 146.016 145.659 148.587 140.42 152.398C135.214 156.115 130.722 160.458 125.7 163.31C115.607 169.38 103.062 167.255 93.5017 160.982C84.0305 154.946 76.1301 144.265 74.143 132.909C78.3424 131.569 82.9777 131.142 87.4633 131.147C109.033 131.388 129.505 140.172 150.975 142.214C153.147 142.435 157.841 142.964 161.605 143.389ZM213.438 167.087C208.323 167.862 203.191 166.441 198.434 164.69C183.409 160.314 167.168 161.677 152.56 166.903C168.362 156.438 187.477 151.816 206.229 151.957C215.333 152.24 225.074 153.384 232.626 158.624C227.509 163.478 220.151 166.382 213.438 167.087ZM237.7 151.447C237.049 153.011 236.179 154.458 235.161 155.801C232.491 153.942 229.42 152.602 226.43 151.688C206.704 146.311 185.691 150.055 166.957 157.279C160.744 159.753 154.828 163.242 149.396 167.076C138.246 174.225 126.024 179.72 113.245 182.958C100.789 185.831 86.9254 187.814 75.4804 180.786C61.5318 173.246 53.8913 155.008 62.9365 140.927C64.8248 138.104 67.2905 136.067 70.0884 134.597C72.7827 153.397 90.2613 170.863 109 172.524C123.909 174.009 132.953 164.623 142.953 155.789C150.005 149.914 158.71 146.246 167.873 144.086C180.636 145.456 193.367 147.436 206.318 144.964C213.394 143.665 220.788 139.118 223.261 131.885C223.617 130.924 223.901 129.951 224.153 128.977C232.113 133.897 241.245 141.424 237.7 151.447Z" fill="#C6A678"/>
<path d="M78.752 67.6277C81.5614 67.6277 83.838 65.3265 83.838 62.4867C83.838 59.6468 81.5614 57.3457 78.752 57.3457C75.9425 57.3457 73.666 59.6468 73.666 62.4867C73.666 65.3265 75.9425 67.6277 78.752 67.6277Z" fill="#C6A678"/>
<path d="M118.55 7.11957C120.494 7.11957 122.072 5.52673 122.072 3.55979C122.072 1.5945 120.496 0 118.55 0C116.606 0 115.028 1.59284 115.028 3.55979C115.028 5.52507 116.606 7.11957 118.55 7.11957Z" fill="#C6A678"/>
<path d="M172.15 57.3457C173.014 57.3457 173.714 56.6374 173.714 55.7645C173.714 54.8916 173.014 54.1833 172.15 54.1833C171.286 54.1833 170.586 54.8916 170.586 55.7645C170.586 56.6374 171.286 57.3457 172.15 57.3457Z" fill="#C6A678"/>
<path d="M249.066 88.5059C247.426 88.5059 246.097 89.8494 246.097 91.5071C246.097 93.1647 247.426 94.5082 249.066 94.5082C250.706 94.5082 252.035 93.1647 252.035 91.5071C252.035 89.8494 250.706 88.5059 249.066 88.5059Z" fill="#C6A678"/>
<path d="M1.51493 105.006C0.677685 105.006 0 105.691 0 106.538C0 107.384 0.677685 108.069 1.51493 108.069C2.35053 108.069 3.02988 107.384 3.02988 106.538C3.02988 105.691 2.35217 105.006 1.51493 105.006Z" fill="#C6A678"/>
<path d="M256.518 45.0502C258.993 45.0502 261 43.0217 261 40.5194C261 38.0172 258.993 35.9886 256.518 35.9886C254.042 35.9886 252.035 38.0172 252.035 40.5194C252.035 43.0217 254.042 45.0502 256.518 45.0502Z" fill="#C6A678"/>
</g>
<path d="M296.9 158.886C299.423 158.771 301.888 158.714 304.296 158.714C306.761 158.714 309.341 158.972 312.036 159.488C314.788 160.004 317.483 160.979 320.12 162.412C322.815 163.788 325.079 165.594 326.914 167.83C328.806 170.009 330.325 172.904 331.472 176.516C332.619 180.128 333.192 184.514 333.192 189.674C333.192 194.834 332.332 199.478 330.612 203.606C328.949 207.677 326.656 210.801 323.732 212.98C318.056 217.223 311.205 219.344 303.178 219.344C300.369 219.344 297.416 219.229 294.32 219H290.02V158.886H296.9ZM297.158 218.312C298.362 218.427 299.881 218.484 301.716 218.484C303.551 218.484 304.927 218.455 305.844 218.398C306.761 218.341 308.023 218.111 309.628 217.71C311.233 217.251 312.724 216.649 314.1 215.904C315.476 215.159 316.909 214.069 318.4 212.636C319.948 211.145 321.267 209.397 322.356 207.39C324.821 202.689 326.054 196.554 326.054 188.986C326.054 183.597 325.395 178.953 324.076 175.054C322.757 171.098 321.238 168.174 319.518 166.282C317.855 164.39 315.82 162.899 313.412 161.81C311.004 160.663 309.083 160.004 307.65 159.832C306.217 159.66 304.554 159.574 302.662 159.574C300.77 159.574 298.935 159.66 297.158 159.832V218.312ZM345.946 198.016C345.946 205.125 347.179 210.343 349.644 213.668C352.167 216.993 355.464 218.656 359.534 218.656C365.268 218.656 370.37 217.796 374.842 216.076L375.1 216.678C370.514 218.455 365.325 219.344 359.534 219.344C353.801 219.344 349.128 217.624 345.516 214.184C341.904 210.744 340.098 205.441 340.098 198.274C340.098 191.107 341.99 185.546 345.774 181.59C349.558 177.634 354.374 175.656 360.222 175.656C364.924 175.656 368.88 177.061 372.09 179.87C375.301 182.679 376.906 186.836 376.906 192.34C376.906 192.627 376.906 192.913 376.906 193.2H346.204C346.032 194.748 345.946 196.353 345.946 198.016ZM371.058 192.512C371.001 187.008 369.94 182.937 367.876 180.3C365.812 177.663 363.146 176.344 359.878 176.344C356.61 176.344 353.686 177.777 351.106 180.644C348.584 183.511 346.978 187.467 346.29 192.512H371.058ZM393.936 219C388.891 219 385.709 217.681 384.39 215.044C384.104 214.471 383.96 213.955 383.96 213.496V154.586H389.98V212.894C389.98 214.557 390.296 215.847 390.926 216.764C391.614 217.624 392.302 218.083 392.99 218.14L393.936 218.312H396.602V219H393.936ZM410.179 219C407.828 219 406.022 218.484 404.761 217.452C403.557 216.42 402.926 215.388 402.869 214.356L402.783 212.894V176H408.803V212.894C408.803 214.557 409.118 215.847 409.749 216.764C410.437 217.624 411.096 218.083 411.727 218.14L412.759 218.312H415.425V219H410.179ZM403.299 166.368C402.611 165.68 402.267 164.82 402.267 163.788C402.267 162.756 402.611 161.896 403.299 161.208C403.987 160.463 404.847 160.09 405.879 160.09C406.911 160.09 407.771 160.463 408.459 161.208C409.204 161.896 409.577 162.756 409.577 163.788C409.577 164.82 409.204 165.68 408.459 166.368C407.771 167.056 406.911 167.4 405.879 167.4C404.847 167.4 403.987 167.056 403.299 166.368ZM448.93 176.516L449.446 176C449.675 176.115 449.962 176.459 450.306 177.032C450.707 177.605 450.937 178.121 450.994 178.58C451.109 179.039 451.166 179.469 451.166 179.87C451.166 181.418 450.822 182.995 450.134 184.6L433.622 219H432.762L416.766 176H422.786L435.944 211.604L449.274 184.6C449.962 183.396 450.306 181.963 450.306 180.3C450.306 178.637 449.847 177.376 448.93 176.516ZM476.295 219.344C470.275 219.344 465.373 217.624 461.589 214.184C457.805 210.744 455.913 205.441 455.913 198.274C455.913 191.107 457.862 185.546 461.761 181.59C465.717 177.634 470.705 175.656 476.725 175.656C482.802 175.656 487.733 177.376 491.517 180.816C495.301 184.256 497.193 189.559 497.193 196.726C497.193 203.893 495.215 209.454 491.259 213.41C487.36 217.366 482.372 219.344 476.295 219.344ZM476.897 176.344C472.539 176.344 468.927 178.293 466.061 182.192C463.194 186.033 461.761 191.423 461.761 198.36C461.761 205.24 463.079 210.343 465.717 213.668C468.354 216.993 471.851 218.656 476.209 218.656C480.566 218.656 484.178 216.735 487.045 212.894C489.911 208.995 491.345 203.606 491.345 196.726C491.345 189.789 490.026 184.657 487.389 181.332C484.751 178.007 481.254 176.344 476.897 176.344ZM518.782 179.698V177.892C516.202 178.924 513.851 181.017 511.73 184.17C509.609 187.266 508.491 190.19 508.376 192.942V219H502.356V176H508.376V189.674C509.293 186.349 511.042 183.224 513.622 180.3C516.202 177.319 519.126 175.771 522.394 175.656H522.738C523.885 175.656 524.831 176.057 525.576 176.86C526.379 177.605 526.78 178.551 526.78 179.698C526.78 180.845 526.379 181.791 525.576 182.536C524.831 183.281 523.885 183.654 522.738 183.654C521.591 183.654 520.645 183.281 519.9 182.536C519.155 181.791 518.782 180.845 518.782 179.698ZM542.034 219C539.684 219 537.878 218.484 536.616 217.452C535.412 216.42 534.782 215.388 534.724 214.356L534.638 212.894V176H540.658V212.894C540.658 214.557 540.974 215.847 541.604 216.764C542.292 217.624 542.952 218.083 543.582 218.14L544.614 218.312H547.28V219H542.034ZM535.154 166.368C534.466 165.68 534.122 164.82 534.122 163.788C534.122 162.756 534.466 161.896 535.154 161.208C535.842 160.463 536.702 160.09 537.734 160.09C538.766 160.09 539.626 160.463 540.314 161.208C541.06 161.896 541.432 162.756 541.432 163.788C541.432 164.82 541.06 165.68 540.314 166.368C539.626 167.056 538.766 167.4 537.734 167.4C536.702 167.4 535.842 167.056 535.154 166.368ZM588.013 219C584.114 219 581.448 218.255 580.015 216.764C578.696 215.503 578.037 214.413 578.037 213.496V211.69C575.227 216.793 570.727 219.344 564.535 219.344C557.311 219.344 553.211 216.076 552.237 209.54C552.122 208.852 552.065 208.164 552.065 207.476C552.065 206.731 552.179 205.928 552.409 205.068C552.638 204.208 553.297 203.262 554.387 202.23C556.565 200.166 561.353 198.905 568.749 198.446C570.583 198.274 572.275 198.188 573.823 198.188C575.371 198.188 576.775 198.245 578.037 198.36V184.084C577.922 184.027 577.922 183.769 578.037 183.31C578.151 182.794 578.037 182.163 577.693 181.418C577.406 180.615 577.005 179.841 576.489 179.096C575.973 178.351 575.055 177.72 573.737 177.204C572.418 176.631 570.698 176.344 568.577 176.344C566.455 176.344 563.961 176.745 561.095 177.548C558.285 178.293 556.221 179.039 554.903 179.784L554.559 179.182C559.661 176.831 564.85 175.656 570.125 175.656C576.03 175.656 579.929 176.717 581.821 178.838C583.311 180.501 584.057 182.249 584.057 184.084V212.894C584.057 214.557 584.372 215.847 585.003 216.764C585.691 217.624 586.379 218.083 587.067 218.14L588.013 218.312H590.679V219H588.013ZM565.911 218.656C568.949 218.656 571.673 217.624 574.081 215.56C576.546 213.439 577.865 211.403 578.037 209.454V199.048C576.489 198.933 574.912 198.876 573.307 198.876C571.759 198.876 570.211 198.962 568.663 199.134C564.305 199.65 561.467 200.625 560.149 202.058C558.83 203.491 558.171 205.469 558.171 207.992C558.171 208.451 558.199 208.967 558.257 209.54C558.773 215.617 561.324 218.656 565.911 218.656ZM643.946 219H636.808V159.66H621.93V158.8H658.91V159.66H643.946V219ZM699.39 219C697.039 219 695.233 218.484 693.972 217.452C692.768 216.42 692.137 215.388 692.08 214.356L691.994 212.894V185.89C691.994 181.361 690.79 178.465 688.382 177.204C687.235 176.631 685.773 176.344 683.996 176.344C680.441 176.344 677.231 177.806 674.364 180.73C671.555 183.597 670.15 186.177 670.15 188.47V219H664.13V154.586H670.15V185.804C671.067 183.339 672.816 181.045 675.396 178.924C677.976 176.745 680.871 175.656 684.082 175.656C689.643 175.656 693.341 176.631 695.176 178.58C697.068 180.472 698.014 182.937 698.014 185.976V212.894C698.014 214.557 698.329 215.847 698.96 216.764C699.648 217.624 700.307 218.083 700.938 218.14L701.97 218.312H704.636V219H699.39ZM715.226 198.016C715.226 205.125 716.458 210.343 718.924 213.668C721.446 216.993 724.743 218.656 728.814 218.656C734.547 218.656 739.65 217.796 744.122 216.076L744.38 216.678C739.793 218.455 734.604 219.344 728.814 219.344C723.08 219.344 718.408 217.624 714.796 214.184C711.184 210.744 709.378 205.441 709.378 198.274C709.378 191.107 711.27 185.546 715.054 181.59C718.838 177.634 723.654 175.656 729.502 175.656C734.203 175.656 738.159 177.061 741.37 179.87C744.58 182.679 746.186 186.836 746.186 192.34C746.186 192.627 746.186 192.913 746.186 193.2H715.484C715.312 194.748 715.226 196.353 715.226 198.016ZM740.338 192.512C740.28 187.008 739.22 182.937 737.156 180.3C735.092 177.663 732.426 176.344 729.158 176.344C725.89 176.344 722.966 177.777 720.386 180.644C717.863 183.511 716.258 187.467 715.57 192.512H740.338ZM766.116 179.698V177.892C763.536 178.924 761.185 181.017 759.064 184.17C756.943 187.266 755.825 190.19 755.71 192.942V219H749.69V176H755.71V189.674C756.627 186.349 758.376 183.224 760.956 180.3C763.536 177.319 766.46 175.771 769.728 175.656H770.072C771.219 175.656 772.165 176.057 772.91 176.86C773.713 177.605 774.114 178.551 774.114 179.698C774.114 180.845 773.713 181.791 772.91 182.536C772.165 183.281 771.219 183.654 770.072 183.654C768.925 183.654 767.979 183.281 767.234 182.536C766.489 181.791 766.116 180.845 766.116 179.698ZM813.511 219C809.612 219 806.946 218.255 805.513 216.764C804.194 215.503 803.535 214.413 803.535 213.496V211.69C800.725 216.793 796.225 219.344 790.033 219.344C782.809 219.344 778.709 216.076 777.735 209.54C777.62 208.852 777.563 208.164 777.563 207.476C777.563 206.731 777.677 205.928 777.907 205.068C778.136 204.208 778.795 203.262 779.885 202.23C782.063 200.166 786.851 198.905 794.247 198.446C796.081 198.274 797.773 198.188 799.321 198.188C800.869 198.188 802.273 198.245 803.535 198.36V184.084C803.42 184.027 803.42 183.769 803.535 183.31C803.649 182.794 803.535 182.163 803.191 181.418C802.904 180.615 802.503 179.841 801.987 179.096C801.471 178.351 800.553 177.72 799.235 177.204C797.916 176.631 796.196 176.344 794.075 176.344C791.953 176.344 789.459 176.745 786.593 177.548C783.783 178.293 781.719 179.039 780.401 179.784L780.057 179.182C785.159 176.831 790.348 175.656 795.623 175.656C801.528 175.656 805.427 176.717 807.319 178.838C808.809 180.501 809.555 182.249 809.555 184.084V212.894C809.555 214.557 809.87 215.847 810.501 216.764C811.189 217.624 811.877 218.083 812.565 218.14L813.511 218.312H816.177V219H813.511ZM791.409 218.656C794.447 218.656 797.171 217.624 799.579 215.56C802.044 213.439 803.363 211.403 803.535 209.454V199.048C801.987 198.933 800.41 198.876 798.805 198.876C797.257 198.876 795.709 198.962 794.161 199.134C789.803 199.65 786.965 200.625 785.647 202.058C784.328 203.491 783.669 205.469 783.669 207.992C783.669 208.451 783.697 208.967 783.755 209.54C784.271 215.617 786.822 218.656 791.409 218.656ZM821.769 176H827.789V186.664C828.763 184.027 830.569 181.533 833.207 179.182C835.844 176.831 838.825 175.656 842.151 175.656C853.789 175.656 859.609 182.479 859.609 196.124C859.609 211.604 852.098 219.344 837.077 219.344C834.382 219.344 831.286 218.713 827.789 217.452V240.5H821.769V176ZM842.065 176.344C838.51 176.344 835.299 177.892 832.433 180.988C829.566 184.027 828.018 186.779 827.789 189.244V216.678C831.286 217.997 834.353 218.656 836.991 218.656C848.056 218.656 853.589 211.117 853.589 196.038C853.589 182.909 849.747 176.344 842.065 176.344ZM874.487 234.394C872.652 238.465 870.387 240.5 867.693 240.5C866.489 240.5 865.084 240.299 863.479 239.898V239.21C864.797 239.554 865.973 239.726 867.005 239.726C869.929 239.726 872.165 237.949 873.713 234.394L880.937 219H880.851L864.855 176H870.875L884.205 211.862L897.363 184.6C898.051 183.396 898.395 181.963 898.395 180.3C898.395 178.637 897.936 177.376 897.019 176.516L897.535 176C897.764 176.115 898.051 176.459 898.395 177.032C898.796 177.605 899.025 178.121 899.083 178.58C899.197 179.039 899.255 179.469 899.255 179.87C899.255 181.418 898.911 182.995 898.223 184.6L881.711 219L874.487 234.394Z" fill="white"/>
<defs>
<clipPath id="clip0_2_9">
<rect width="261" height="223" fill="white"/>
</clipPath>
</defs>
</svg>
