<svg viewBox="0 0 575 575" class="roots-wrapper"><g transform="rotate(0 0 0)"><svg viewBoxSize="575" data-root-id="7730318671597" xmlns="http://www.w3.org/2000/svg" xmlns:xlink="http://www.w3.org/1999/xlink" version="1.1" id="mmmm_1" x="226.50000762939453" y="225.1025064086914" viewBox="1706.8800048828125 829.4000244140625 1586.7401123046875 1341.2098388671875" xml:space="preserve" height="87.06196476862982" width="103" preserveAspectRatio="xMinYMin" zoom="1" editorType="buyer" data-layer-role="icon" style="position: absolute; height: 87.062px; width: 103px; top: 225.103px; left: 226.5px;"><path d="M3157.82,1784.8c7.9-11.05,14.21-23.23,18.18-36.62c22.28-71.23-45.13-124.5-105.63-146.13   c14.77-61.27-5.62-124.28-70.97-146.57c-26.68-9.08-56.71-13.12-88.12-13.33c-52.43-49.71-129.46-85.32-201.65-70.96   c-108.04-76.44-269.28-36.78-355.26,57.57c-77.56-11.13-154.1,8.4-199.27,87.01c-16.59,29.37-24.04,60.54-24.29,91.7   c-44.97,20.43-79.42,57.17-88.39,115.24c-26.3,133.92,108.07,247.47,235.11,239.38c122.61-7.99,239.99-54.05,342.91-119.53   c1.74-1.23,3.54-2.35,5.29-3.55c93.15-15.9,188.75-19.39,278.18,10.06c65.72,30.25,144.02,21.25,204.06-17.76   c12.29-8.2,24.04-17.67,34.47-28.37c17.45,22.82,19.62,53.24,11.55,81.47c-7.84,37.71-34.72,60.3-72.98,62.61   c-58.68,4.42-117.3-10.75-175.97-20.22c-39.97-7.09-79.97-13.8-121.13-18.13c-42.6-3.78-85.54-4.54-127.35,9.67   c-40.05,11.98-72.26,50.56-72.03,94.53c-1.11,22.23-1.36,44.58-1.35,66.83c0.01,32.57-25.5,59.43-58.03,61.14   c-60.77,3.2-121.1,9.98-181.15,24.91v3.24l269.08,1.62l269.08-1.62v-3.24c-67.21-16.6-134.76-23.11-202.89-25.84   c-32.54-1.3-58.31-28.06-58.66-60.62c-0.18-16.83-0.28-33.58-0.13-50.23c-1.91-37.55,9.81-64.59,47.92-78.01   c33.69-12.08,73.8-12.42,112.5-9.33c39.28,3.61,79.14,9.7,118.8,16.21c60.48,8.94,121.99,24,184.57,18.06   c21.47-2.6,44.93-9.6,62.99-25.91c33.23-32.01,42.31-82.99,32.82-125.9C3175.89,1808.82,3167.97,1795.82,3157.82,1784.8z    M2990.87,1476.89c34.72,13.65,58.7,43.52,57.52,81.36c-0.18,35.8-11.37,74.03-42.51,93.87c-29.68,18.18-63.89,23.28-98.87,23.87   c-32.47-7.05-64.33-19.42-95.03-30.57c-66.24-26.97-129.43-60.29-191.88-95.26c25.15-19.46,53.49-34.62,82.62-47.11   C2792.29,1467.93,2897.98,1443.33,2990.87,1476.89z M2902.16,1442.09c-101.57,1.81-216.49,44.7-286.3,105.68   c-17.46-9.8-34.88-19.71-52.29-29.65c-22.5-12.41-51.26-29.98-77.05-43.72c5.74,1.23,11.53,2.33,17.39,3.24   C2659.85,1502.62,2652.03,1315.72,2902.16,1442.09z M2696.41,1374.48c-7.77,2.25-15.49,4.88-23.07,8.41   c-39.23,15.75-73.68,50.21-109.15,68.4c-17.49,7.35-38.17,9.89-59.33,10.44c-14.49,0.75-29.17,0.29-43.99-0.07   c-33.18-15.55-69.16-27.37-104.98-32.7C2462.97,1375.13,2579.86,1342.18,2696.41,1374.48z M2170.77,1524.14   c56.07-116.09,189.8-103.23,285.16-44.89c46.43,27.51,94.66,65.37,142.04,91.55c58.11,33.21,144.41,78.03,227.81,101.84   c-54.18-4.73-113.53-12.98-167.28-19.27c-142.49-9.63-274.66-66.2-419.95-66.39c-28.73-0.39-57.46,3.15-83.8,11.32   C2154.43,1573.28,2159.31,1548.18,2170.77,1524.14z M2689.35,1691.8c-7.93,1.62-15.84,3.36-23.65,5.48   c-36.88,10.32-73.29,25.78-105.14,48.7c-31.65,22.36-58.96,48.48-89.49,65.63c-61.36,36.51-137.63,23.73-195.75-14   c-57.58-36.3-105.61-100.54-117.69-168.84c25.53-8.06,53.71-10.63,80.98-10.6c131.13,1.45,255.59,54.28,386.12,66.56   C2637.93,1686.06,2666.47,1689.24,2689.35,1691.8z M3004.47,1834.33c-31.1,4.66-62.3-3.89-91.22-14.42   c-91.34-26.32-190.08-18.12-278.89,13.31c96.07-62.94,212.28-90.74,326.28-89.89c55.35,1.7,114.57,8.58,160.48,40.1   C3090.01,1812.62,3045.28,1830.09,3004.47,1834.33z M3151.97,1740.26c-3.96,9.41-9.25,18.11-15.44,26.19   c-16.23-11.18-34.9-19.24-53.08-24.74c-119.92-32.34-247.67-9.82-361.56,33.63c-37.77,14.88-73.74,35.86-106.76,58.92   c-67.79,43-142.09,76.05-219.78,95.52c-75.73,17.28-160.01,29.21-229.59-13.06c-84.8-45.35-131.25-155.04-76.26-239.73   c11.48-16.98,26.47-29.23,43.48-38.07c16.38,113.07,122.64,218.12,236.56,228.11c90.64,8.93,145.62-47.52,206.42-100.65   c42.87-35.34,95.79-57.4,151.5-70.39c77.59,8.24,154.99,20.15,233.72,5.28c43.02-7.81,87.97-35.16,103.01-78.66   c2.16-5.78,3.89-11.63,5.42-17.49C3118,1634.71,3173.52,1679.98,3151.97,1740.26z" name="Layer %{number}" zoom="1" data-layer-id="6252823671597" style="fill: rgb(198, 166, 120); fill-opacity: 1;"></path><path d="M2185.65,1236.14c17.08,0,30.92-13.84,30.92-30.92c0-17.08-13.84-30.92-30.92-30.92c-17.08,0-30.92,13.84-30.92,30.92   C2154.73,1222.3,2168.57,1236.14,2185.65,1236.14z" name="Layer %{number}" zoom="1" data-layer-id="4580176771597" style="fill: rgb(198, 166, 120); fill-opacity: 1;"></path><path d="M2427.6,872.22c11.82,0,21.41-9.58,21.41-21.41c0-11.82-9.58-21.41-21.41-21.41c-11.82,0-21.41,9.58-21.41,21.41   C2406.19,862.63,2415.78,872.22,2427.6,872.22z" name="Layer %{number}" zoom="1" data-layer-id="2247355971597" style="fill: rgb(198, 166, 120); fill-opacity: 1;"></path><path d="M2753.46,1174.3c5.25,0,9.51-4.26,9.51-9.51c0-5.25-4.26-9.51-9.51-9.51s-9.51,4.26-9.51,9.51   C2743.95,1170.04,2748.21,1174.3,2753.46,1174.3z" name="Layer %{number}" zoom="1" data-layer-id="2648158471597" style="fill: rgb(198, 166, 120); fill-opacity: 1;"></path><path d="M3221.07,1361.71c-9.97,0-18.05,8.08-18.05,18.05c0,9.97,8.08,18.05,18.05,18.05c9.97,0,18.05-8.08,18.05-18.05   C3239.12,1369.79,3231.04,1361.71,3221.07,1361.71z" name="Layer %{number}" zoom="1" data-layer-id="1848918971597" style="fill: rgb(198, 166, 120); fill-opacity: 1;"></path><path d="M1716.09,1460.95c-5.09,0-9.21,4.12-9.21,9.21c0,5.09,4.12,9.21,9.21,9.21c5.08,0,9.21-4.12,9.21-9.21   C1725.3,1465.07,1721.18,1460.95,1716.09,1460.95z" name="Layer %{number}" zoom="1" data-layer-id="8244057671597" style="fill: rgb(198, 166, 120); fill-opacity: 1;"></path><circle cx="3266.37" cy="1073.1" r="27.25" name="Layer %{number}" zoom="1" data-layer-id="2765792771597" style="fill: rgb(198, 166, 120); fill-opacity: 1;"></circle></svg></g><g transform="rotate(0 0 0)"><svg viewBoxSize="575" data-root-id="4503179871597" xmlns="http://www.w3.org/2000/svg" y="364.4675064086914" viewBox="0 0 0 0" x="287.5000077819824" height="0" width="0" fontUrl="https://fonts.gstatic.com/s/abel/v18/MwQ5bhbm2POE6VhLPJp6qGI.ttf" zoom="1" editorType="buyer" data-layer-role="slogan" style="position: absolute; top: 364.468px; width: 0px; height: 0px; left: 287.5px;"><g data-horizontal-grow="center" zoom="1" root="[object Object]" style="fill: rgb(245, 245, 245); fill-opacity: 1;"><path d="" transform="translate(0, 0)"></path></g></svg></g><g transform="rotate(0 0 0)"><svg viewBoxSize="575" data-root-id="9536640671597" xmlns="http://www.w3.org/2000/svg" y="321.468" viewBox="3.0799999237060547 5.659999847412109 186.8800048828125 28.43000030517578" x="194.06" height="28.43000030517578" width="186.8800048828125" fontUrl="https://fonts.gstatic.com/s/bellefair/v14/kJExBuYY6AAuhiXUxG19__A2pOdvDA.ttf" zoom="1" editorType="buyer" data-layer-role="brandName" style="position: absolute; top: 321.468px; width: 186.88px; height: 28.43px; left: 194.06px;"><g data-horizontal-grow="center" zoom="1" root="[object Object]" style="fill: rgb(245, 245, 245); fill-opacity: 1;"><path d="M10.15 33.48Q8.17 33.48 6.35 32.93Q4.52 32.38 3.08 31.39L3.08 31.39L3.08 26.79Q4.07 29.34 6.10 30.65Q8.13 31.96 10.34 31.96L10.34 31.96Q12.54 31.96 14.02 30.49Q15.50 29.03 15.50 26.87L15.50 26.87Q15.50 25.42 14.91 24.40Q14.33 23.37 13.03 22.48Q11.74 21.58 9.39 20.48L9.39 20.48Q6.08 18.96 4.58 17.31Q3.08 15.66 3.08 13.30L3.08 13.30Q3.08 11.29 4.05 9.71Q5.02 8.13 6.67 7.28Q8.32 6.42 10.30 6.42L10.30 6.42Q12.01 6.42 13.64 6.90Q15.28 7.37 16.68 8.25L16.68 8.25L16.68 12.35Q15.77 10.26 13.93 9.10Q12.08 7.94 10.18 7.94L10.18 7.94Q8.02 7.94 6.69 9.35Q5.36 10.75 5.36 12.69L5.36 12.69Q5.36 14.10 6.16 15.11Q6.95 16.11 8.11 16.80Q9.27 17.48 11.36 18.47L11.36 18.47Q13.49 19.49 14.86 20.37Q16.23 21.24 17.14 22.65Q18.05 24.05 18.05 26.07L18.05 26.07Q18.05 28.35 16.97 30.02Q15.88 31.69 14.08 32.59Q12.27 33.48 10.15 33.48L10.15 33.48ZM39.63 6.88L45.22 6.88Q44.84 6.95 44.00 7.71Q43.17 8.47 41.99 10.53L41.99 10.53L35.42 21.81L35.42 29.49Q35.42 31.43 35.95 32.19Q36.48 32.95 36.94 33.02L36.94 33.02L31.16 33.02Q31.62 32.95 32.15 32.20Q32.68 31.46 32.68 29.49L32.68 29.49L32.68 21.77L26.18 10.49Q25.04 8.51 24.21 7.77Q23.37 7.03 22.88 6.88L22.88 6.88L29.26 6.88Q28.31 7.07 28.31 8.09L28.31 8.09Q28.31 8.44 28.54 8.91Q28.77 9.39 29.26 10.26L29.26 10.26L34.77 19.95L40.28 10.41Q40.93 9.35 40.93 8.25L40.93 8.25Q40.93 7.52 40.49 7.24Q40.05 6.95 39.63 6.88L39.63 6.88ZM69.77 6.88L75.13 6.88Q74.59 6.99 74.08 7.73Q73.57 8.47 73.57 10.34L73.57 10.34L73.57 34.09L54.11 11.40L54.11 29.60Q54.11 31.43 54.76 32.17Q55.40 32.91 56.01 33.02L56.01 33.02L50.65 33.02Q51.19 32.91 51.74 32.17Q52.29 31.43 52.29 29.56L52.29 29.56L52.29 10.56Q52.29 9.27 51.41 8.21Q50.54 7.14 49.21 6.88L49.21 6.88L53.92 6.88L71.74 27.66L71.74 10.34Q71.74 7.41 69.77 6.88L69.77 6.88ZM98.34 22.88L88.88 22.88L86.45 28.92Q85.88 30.32 85.88 31.24L85.88 31.24Q85.88 32.49 87.02 33.02L87.02 33.02L81.59 33.02Q81.97 33.02 82.69 32.26Q83.41 31.50 84.36 29.26L84.36 29.26L94.28 5.66L104.12 29.37Q104.96 31.43 105.73 32.19Q106.51 32.95 106.97 33.02L106.97 33.02L100.66 33.02Q101.61 32.57 101.61 31.62L101.61 31.62Q101.61 30.82 101.00 29.34L101.00 29.34L98.34 22.88ZM89.53 21.32L97.74 21.32L93.59 11.17L89.53 21.32ZM129.66 13.95Q129.66 16.15 128.61 17.88Q127.57 19.61 125.63 20.60Q123.69 21.58 121.07 21.58L121.07 21.58Q119.47 21.58 117.65 21.24L117.65 21.24L117.65 29.53Q117.65 31.01 118.03 31.79Q118.41 32.57 118.86 32.83Q119.32 33.10 119.32 33.02L119.32 33.02L113.28 33.02Q113.28 33.10 113.73 32.83Q114.19 32.57 114.55 31.81Q114.91 31.05 114.91 29.53L114.91 29.53L114.91 10.49Q114.91 8.97 114.55 8.17Q114.19 7.37 113.73 7.09Q113.28 6.80 113.28 6.88L113.28 6.88L120.73 6.88Q122.66 6.88 123.92 7.13Q125.17 7.37 126.12 7.87L126.12 7.87Q127.83 8.74 128.74 10.39Q129.66 12.05 129.66 13.95L129.66 13.95ZM126.73 14.44Q126.73 11.74 125.06 10.07Q123.39 8.40 120.61 8.40L120.61 8.40L117.65 8.40L117.65 19.76Q119.28 20.06 121.07 20.06L121.07 20.06Q123.73 20.06 125.23 18.52Q126.73 16.99 126.73 14.44L126.73 14.44ZM144.06 33.48Q142.08 33.48 140.26 32.93Q138.43 32.38 136.99 31.39L136.99 31.39L136.99 26.79Q137.98 29.34 140.01 30.65Q142.04 31.96 144.25 31.96L144.25 31.96Q146.45 31.96 147.93 30.49Q149.42 29.03 149.42 26.87L149.42 26.87Q149.42 25.42 148.83 24.40Q148.24 23.37 146.95 22.48Q145.65 21.58 143.30 20.48L143.30 20.48Q139.99 18.96 138.49 17.31Q136.99 15.66 136.99 13.30L136.99 13.30Q136.99 11.29 137.96 9.71Q138.93 8.13 140.58 7.28Q142.23 6.42 144.21 6.42L144.21 6.42Q145.92 6.42 147.55 6.90Q149.19 7.37 150.59 8.25L150.59 8.25L150.59 12.35Q149.68 10.26 147.84 9.10Q146.00 7.94 144.10 7.94L144.10 7.94Q141.93 7.94 140.60 9.35Q139.27 10.75 139.27 12.69L139.27 12.69Q139.27 14.10 140.07 15.11Q140.87 16.11 142.03 16.80Q143.18 17.48 145.27 18.47L145.27 18.47Q147.40 19.49 148.77 20.37Q150.14 21.24 151.05 22.65Q151.96 24.05 151.96 26.07L151.96 26.07Q151.96 28.35 150.88 30.02Q149.80 31.69 147.99 32.59Q146.19 33.48 144.06 33.48L144.06 33.48ZM160.21 33.02Q160.21 33.14 160.66 32.85Q161.12 32.57 161.50 31.79Q161.88 31.01 161.88 29.49L161.88 29.49L161.88 10.41Q161.88 8.89 161.52 8.11Q161.16 7.33 160.70 7.07Q160.25 6.80 160.25 6.88L160.25 6.88L166.29 6.88Q166.29 6.80 165.83 7.07Q165.38 7.33 165.00 8.11Q164.62 8.89 164.62 10.41L164.62 10.41L164.62 29.49Q164.62 31.01 165.00 31.79Q165.38 32.57 165.83 32.83Q166.29 33.10 166.29 33.02L166.29 33.02L160.21 33.02ZM182.06 33.48Q180.08 33.48 178.26 32.93Q176.43 32.38 174.99 31.39L174.99 31.39L174.99 26.79Q175.98 29.34 178.01 30.65Q180.04 31.96 182.25 31.96L182.25 31.96Q184.45 31.96 185.93 30.49Q187.42 29.03 187.42 26.87L187.42 26.87Q187.42 25.42 186.83 24.40Q186.24 23.37 184.95 22.48Q183.65 21.58 181.30 20.48L181.30 20.48Q177.99 18.96 176.49 17.31Q174.99 15.66 174.99 13.30L174.99 13.30Q174.99 11.29 175.96 9.71Q176.93 8.13 178.58 7.28Q180.23 6.42 182.21 6.42L182.21 6.42Q183.92 6.42 185.55 6.90Q187.19 7.37 188.59 8.25L188.59 8.25L188.59 12.35Q187.68 10.26 185.84 9.10Q184.00 7.94 182.10 7.94L182.10 7.94Q179.93 7.94 178.60 9.35Q177.27 10.75 177.27 12.69L177.27 12.69Q177.27 14.10 178.07 15.11Q178.87 16.11 180.02 16.80Q181.18 17.48 183.27 18.47L183.27 18.47Q185.40 19.49 186.77 20.37Q188.14 21.24 189.05 22.65Q189.96 24.05 189.96 26.07L189.96 26.07Q189.96 28.35 188.88 30.02Q187.80 31.69 185.99 32.59Q184.19 33.48 182.06 33.48L182.06 33.48Z" transform="translate(0, 0)"></path></g></svg></g></svg>